<svg width="18" height="18" viewBox="0 0 18 18" fill="none" xmlns="http://www.w3.org/2000/svg">
<path d="M2.46671 5.73331H2.70004C3.59837 5.73331 4.33337 6.46831 4.33337 7.36665V15.5333C4.33337 16.4316 3.59837 17.1666 2.70004 17.1666H2.46671C1.56837 17.1666 0.833374 16.4316 0.833374 15.5333V7.36665C0.833374 6.46831 1.56837 5.73331 2.46671 5.73331ZM9.00004 0.833313C9.89837 0.833313 10.6334 1.56831 10.6334 2.46665V15.5333C10.6334 16.4316 9.89837 17.1666 9.00004 17.1666C8.10171 17.1666 7.36671 16.4316 7.36671 15.5333V2.46665C7.36671 1.56831 8.10171 0.833313 9.00004 0.833313ZM15.5334 10.1666C16.4317 10.1666 17.1667 10.9016 17.1667 11.8V15.5333C17.1667 16.4316 16.4317 17.1666 15.5334 17.1666C14.635 17.1666 13.9 16.4316 13.9 15.5333V11.8C13.9 10.9016 14.635 10.1666 15.5334 10.1666Z" fill="#A3AED0"/>
</svg>
